<?xml version="1.0" encoding="UTF-8" standalone="no"?>
<!DOCTYPE svg PUBLIC "-//W3C//DTD SVG 1.1//EN" "http://www.w3.org/Graphics/SVG/1.1/DTD/svg11.dtd">
<svg width="100%" height="100%" viewBox="0 0 124 124" version="1.1" xmlns="http://www.w3.org/2000/svg" xmlns:xlink="http://www.w3.org/1999/xlink" xml:space="preserve" xmlns:serif="http://www.serif.com/" style="fill-rule:evenodd;clip-rule:evenodd;stroke-linejoin:round;stroke-miterlimit:2;">
    <g id="Artboard1" transform="matrix(1,0,0,1,-47.0367,-40.8423)">
        <rect x="47.037" y="40.842" width="123.699" height="123.699" style="fill:none;"/>
        <g transform="matrix(1,0,0,1,-4.74054,-3.96157)">
            <g transform="matrix(1,0,0,1,8.03666,-5.15766)">
                <path d="M121.349,159.714L163.319,54.858L142.219,61.537L108.696,139.427L86.655,80.719L66.156,80.719L100.317,159.683L121.349,159.714Z" style="fill:rgb(216,60,40);"/>
            </g>
            <g transform="matrix(1,0,0,1,-3.25737,2.8047)">
                <path d="M123.072,157.801L164.26,54.287L143.16,60.965L112.696,137.427L90.655,78.719L70.156,78.719L102.041,157.771L123.072,157.801Z" style="fill:white;"/>
            </g>
        </g>
    </g>
</svg>
